<svg xmlns="http://www.w3.org/2000/svg" viewBox="0 0 18.04 18.04"><defs><style>.cls-1{fill:#427387;}</style></defs><title>insta</title><g id="Layer_2" data-name="Layer 2"><g id="Layer_1-2" data-name="Layer 1"><path class="cls-1" d="M9,1.63c2.41,0,2.69,0,3.64.05A4.88,4.88,0,0,1,14.34,2,2.92,2.92,0,0,1,16.05,3.7a5.12,5.12,0,0,1,.31,1.67c0,1,.05,1.24.05,3.65s0,2.69-.05,3.64a5.13,5.13,0,0,1-.31,1.68,2.92,2.92,0,0,1-1.71,1.71,5.13,5.13,0,0,1-1.68.31c-.95,0-1.23.05-3.64.05s-2.69,0-3.65-.05a5.12,5.12,0,0,1-1.67-.31A2.92,2.92,0,0,1,2,14.34a4.88,4.88,0,0,1-.31-1.68c-.05-.95-.05-1.23-.05-3.64s0-2.69.05-3.65A4.86,4.86,0,0,1,2,3.7,2.92,2.92,0,0,1,3.7,2a4.86,4.86,0,0,1,1.67-.31c1-.05,1.24-.05,3.65-.05M9,0C6.57,0,6.26,0,5.3.05A6.9,6.9,0,0,0,3.11.47,4.6,4.6,0,0,0,.47,3.11,6.9,6.9,0,0,0,.05,5.3C0,6.26,0,6.57,0,9s0,2.76.05,3.72a6.9,6.9,0,0,0,.42,2.19,4.42,4.42,0,0,0,1,1.59,4.57,4.57,0,0,0,1.6,1.05A6.66,6.66,0,0,0,5.3,18C6.26,18,6.57,18,9,18s2.76,0,3.72-.06a6.66,6.66,0,0,0,2.19-.41,4.75,4.75,0,0,0,2.64-2.64A6.66,6.66,0,0,0,18,12.74C18,11.78,18,11.47,18,9S18,6.26,18,5.3a6.66,6.66,0,0,0-.41-2.19,4.57,4.57,0,0,0-1.05-1.6,4.42,4.42,0,0,0-1.59-1A6.9,6.9,0,0,0,12.74.05c-1,0-1.27,0-3.72,0Z"/><path class="cls-1" d="M9,4.39A4.63,4.63,0,1,0,13.65,9,4.63,4.63,0,0,0,9,4.39ZM9,12a3,3,0,1,1,3-3A3,3,0,0,1,9,12Z"/><circle class="cls-1" cx="13.83" cy="4.2" r="1.08"/></g></g></svg>